<mxfile host="Electron" agent="Mozilla/5.0 (Windows NT 10.0; Win64; x64) AppleWebKit/537.36 (KHTML, like Gecko) draw.io/25.0.2 Chrome/128.0.6613.186 Electron/32.2.5 Safari/537.36" version="25.0.2">
  <diagram name="Страница — 1" id="P7Jme8n3mj8Sh7vMt5Qx">
    <mxGraphModel dx="1235" dy="731" grid="1" gridSize="10" guides="1" tooltips="1" connect="1" arrows="1" fold="1" page="1" pageScale="1" pageWidth="827" pageHeight="1169" math="0" shadow="0">
      <root>
        <mxCell id="0" />
        <mxCell id="1" parent="0" />
        <mxCell id="WAWtEV3Eb6KC3IeLiP2w-1" value="&lt;font style=&quot;font-size: 16px;&quot;&gt;Система безопасности&lt;/font&gt;" style="rounded=0;whiteSpace=wrap;html=1;" vertex="1" parent="1">
          <mxGeometry x="220" y="630" width="120" height="40" as="geometry" />
        </mxCell>
        <mxCell id="WAWtEV3Eb6KC3IeLiP2w-2" value="&lt;font style=&quot;font-size: 16px;&quot;&gt;Козловой кран&lt;/font&gt;" style="rounded=0;whiteSpace=wrap;html=1;" vertex="1" parent="1">
          <mxGeometry x="560" y="260" width="120" height="40" as="geometry" />
        </mxCell>
        <mxCell id="WAWtEV3Eb6KC3IeLiP2w-4" value="&lt;font style=&quot;font-size: 16px;&quot;&gt;Вагон&lt;/font&gt;" style="rounded=0;whiteSpace=wrap;html=1;" vertex="1" parent="1">
          <mxGeometry x="560" y="380" width="120" height="40" as="geometry" />
        </mxCell>
        <mxCell id="WAWtEV3Eb6KC3IeLiP2w-5" value="&lt;font style=&quot;font-size: 16px;&quot;&gt;Машинист&lt;/font&gt;" style="rounded=0;whiteSpace=wrap;html=1;" vertex="1" parent="1">
          <mxGeometry x="560" y="160" width="120" height="40" as="geometry" />
        </mxCell>
        <mxCell id="WAWtEV3Eb6KC3IeLiP2w-6" value="&lt;font style=&quot;font-size: 16px;&quot;&gt;Рабочие&lt;/font&gt;" style="rounded=0;whiteSpace=wrap;html=1;" vertex="1" parent="1">
          <mxGeometry x="636.84" y="500" width="120" height="40" as="geometry" />
        </mxCell>
        <mxCell id="WAWtEV3Eb6KC3IeLiP2w-7" value="&lt;font style=&quot;font-size: 16px;&quot;&gt;Средства индивидуальной защиты&lt;/font&gt;" style="rounded=0;whiteSpace=wrap;html=1;" vertex="1" parent="1">
          <mxGeometry x="840" y="430" width="130" height="60" as="geometry" />
        </mxCell>
        <mxCell id="WAWtEV3Eb6KC3IeLiP2w-8" value="&lt;font style=&quot;font-size: 16px;&quot;&gt;Жилет&lt;/font&gt;" style="rounded=0;whiteSpace=wrap;html=1;" vertex="1" parent="1">
          <mxGeometry x="1080" y="360" width="120" height="40" as="geometry" />
        </mxCell>
        <mxCell id="WAWtEV3Eb6KC3IeLiP2w-9" value="&lt;font style=&quot;font-size: 16px;&quot;&gt;Каска&lt;/font&gt;" style="rounded=0;whiteSpace=wrap;html=1;" vertex="1" parent="1">
          <mxGeometry x="1080" y="440" width="120" height="40" as="geometry" />
        </mxCell>
        <mxCell id="WAWtEV3Eb6KC3IeLiP2w-10" value="&lt;font style=&quot;font-size: 16px;&quot;&gt;Перчатки&lt;/font&gt;" style="rounded=0;whiteSpace=wrap;html=1;" vertex="1" parent="1">
          <mxGeometry x="1080" y="520" width="120" height="40" as="geometry" />
        </mxCell>
        <mxCell id="WAWtEV3Eb6KC3IeLiP2w-12" value="&lt;font style=&quot;font-size: 16px;&quot;&gt;Центр обработки данных&lt;/font&gt;" style="rounded=0;whiteSpace=wrap;html=1;" vertex="1" parent="1">
          <mxGeometry x="760" y="789" width="140" height="45.5" as="geometry" />
        </mxCell>
        <mxCell id="WAWtEV3Eb6KC3IeLiP2w-13" value="&lt;font style=&quot;font-size: 20px;&quot;&gt;Онтология описания системы контроля соблюдения охраны труда и техники безопасности при работе козлового крана&lt;/font&gt;" style="text;html=1;align=center;verticalAlign=middle;whiteSpace=wrap;rounded=0;" vertex="1" parent="1">
          <mxGeometry x="280" y="40" width="710" height="60" as="geometry" />
        </mxCell>
        <mxCell id="WAWtEV3Eb6KC3IeLiP2w-17" value="" style="endArrow=classic;html=1;rounded=0;exitX=0;exitY=0.5;exitDx=0;exitDy=0;entryX=1;entryY=0.5;entryDx=0;entryDy=0;" edge="1" parent="1" source="WAWtEV3Eb6KC3IeLiP2w-8" target="WAWtEV3Eb6KC3IeLiP2w-7">
          <mxGeometry width="50" height="50" relative="1" as="geometry">
            <mxPoint x="780" y="470" as="sourcePoint" />
            <mxPoint x="830" y="420" as="targetPoint" />
          </mxGeometry>
        </mxCell>
        <mxCell id="WAWtEV3Eb6KC3IeLiP2w-18" value="&lt;font style=&quot;font-size: 16px;&quot;&gt;part_of&lt;/font&gt;" style="text;html=1;align=center;verticalAlign=middle;whiteSpace=wrap;rounded=0;" vertex="1" parent="1">
          <mxGeometry x="1000" y="380" width="60" height="30" as="geometry" />
        </mxCell>
        <mxCell id="WAWtEV3Eb6KC3IeLiP2w-20" value="" style="endArrow=classic;html=1;rounded=0;entryX=1;entryY=0.5;entryDx=0;entryDy=0;exitX=0;exitY=0.5;exitDx=0;exitDy=0;" edge="1" parent="1" source="WAWtEV3Eb6KC3IeLiP2w-9" target="WAWtEV3Eb6KC3IeLiP2w-7">
          <mxGeometry width="50" height="50" relative="1" as="geometry">
            <mxPoint x="780" y="470" as="sourcePoint" />
            <mxPoint x="830" y="420" as="targetPoint" />
          </mxGeometry>
        </mxCell>
        <mxCell id="WAWtEV3Eb6KC3IeLiP2w-21" value="" style="endArrow=classic;html=1;rounded=0;exitX=0;exitY=0.5;exitDx=0;exitDy=0;entryX=1;entryY=0.5;entryDx=0;entryDy=0;" edge="1" parent="1" source="WAWtEV3Eb6KC3IeLiP2w-10" target="WAWtEV3Eb6KC3IeLiP2w-7">
          <mxGeometry width="50" height="50" relative="1" as="geometry">
            <mxPoint x="780" y="470" as="sourcePoint" />
            <mxPoint x="830" y="420" as="targetPoint" />
          </mxGeometry>
        </mxCell>
        <mxCell id="WAWtEV3Eb6KC3IeLiP2w-22" value="&lt;font style=&quot;font-size: 16px;&quot;&gt;part_of&lt;/font&gt;" style="text;html=1;align=center;verticalAlign=middle;whiteSpace=wrap;rounded=0;" vertex="1" parent="1">
          <mxGeometry x="1000" y="430" width="60" height="30" as="geometry" />
        </mxCell>
        <mxCell id="WAWtEV3Eb6KC3IeLiP2w-23" value="&lt;font style=&quot;font-size: 16px;&quot;&gt;part_of&lt;/font&gt;" style="text;html=1;align=center;verticalAlign=middle;whiteSpace=wrap;rounded=0;" vertex="1" parent="1">
          <mxGeometry x="1000" y="480" width="60" height="30" as="geometry" />
        </mxCell>
        <mxCell id="WAWtEV3Eb6KC3IeLiP2w-24" value="" style="endArrow=classic;html=1;rounded=0;entryX=0.75;entryY=1;entryDx=0;entryDy=0;exitX=0;exitY=0;exitDx=0;exitDy=0;" edge="1" parent="1" source="WAWtEV3Eb6KC3IeLiP2w-12" target="WAWtEV3Eb6KC3IeLiP2w-1">
          <mxGeometry width="50" height="50" relative="1" as="geometry">
            <mxPoint x="496.84000000000003" y="590" as="sourcePoint" />
            <mxPoint x="226.84" y="550.0000000000002" as="targetPoint" />
          </mxGeometry>
        </mxCell>
        <mxCell id="WAWtEV3Eb6KC3IeLiP2w-25" value="&lt;font style=&quot;font-size: 16px;&quot;&gt;part_of&lt;/font&gt;" style="text;html=1;align=center;verticalAlign=middle;whiteSpace=wrap;rounded=0;" vertex="1" parent="1">
          <mxGeometry x="250" y="720" width="60" height="30" as="geometry" />
        </mxCell>
        <mxCell id="WAWtEV3Eb6KC3IeLiP2w-27" value="&lt;font style=&quot;font-size: 16px;&quot;&gt;Камеры (8 шт.)&lt;/font&gt;" style="rounded=0;whiteSpace=wrap;html=1;" vertex="1" parent="1">
          <mxGeometry x="240" y="794.5" width="120" height="40" as="geometry" />
        </mxCell>
        <mxCell id="WAWtEV3Eb6KC3IeLiP2w-28" value="" style="endArrow=classic;html=1;rounded=0;exitX=0.5;exitY=0;exitDx=0;exitDy=0;entryX=0.5;entryY=1;entryDx=0;entryDy=0;" edge="1" parent="1" source="WAWtEV3Eb6KC3IeLiP2w-27" target="WAWtEV3Eb6KC3IeLiP2w-1">
          <mxGeometry width="50" height="50" relative="1" as="geometry">
            <mxPoint x="506.84000000000003" y="590" as="sourcePoint" />
            <mxPoint x="190.00000000000009" y="550.8" as="targetPoint" />
          </mxGeometry>
        </mxCell>
        <mxCell id="WAWtEV3Eb6KC3IeLiP2w-29" value="&lt;font style=&quot;font-size: 16px;&quot;&gt;part_of&lt;/font&gt;" style="text;html=1;align=center;verticalAlign=middle;whiteSpace=wrap;rounded=0;" vertex="1" parent="1">
          <mxGeometry x="210" y="520" width="60" height="30" as="geometry" />
        </mxCell>
        <mxCell id="WAWtEV3Eb6KC3IeLiP2w-30" value="" style="endArrow=classic;html=1;rounded=0;entryX=0;entryY=0.5;entryDx=0;entryDy=0;exitX=1;exitY=0.5;exitDx=0;exitDy=0;" edge="1" parent="1" source="WAWtEV3Eb6KC3IeLiP2w-6" target="WAWtEV3Eb6KC3IeLiP2w-7">
          <mxGeometry width="50" height="50" relative="1" as="geometry">
            <mxPoint x="610" y="570" as="sourcePoint" />
            <mxPoint x="660" y="520" as="targetPoint" />
          </mxGeometry>
        </mxCell>
        <mxCell id="WAWtEV3Eb6KC3IeLiP2w-31" value="" style="endArrow=classic;html=1;rounded=0;exitX=1;exitY=0.5;exitDx=0;exitDy=0;" edge="1" parent="1" source="WAWtEV3Eb6KC3IeLiP2w-5">
          <mxGeometry width="50" height="50" relative="1" as="geometry">
            <mxPoint x="730" y="540" as="sourcePoint" />
            <mxPoint x="840" y="460" as="targetPoint" />
          </mxGeometry>
        </mxCell>
        <mxCell id="WAWtEV3Eb6KC3IeLiP2w-33" value="&lt;font style=&quot;font-size: 16px;&quot;&gt;Имеет&lt;/font&gt;" style="text;html=1;align=center;verticalAlign=middle;whiteSpace=wrap;rounded=0;" vertex="1" parent="1">
          <mxGeometry x="730" y="290" width="60" height="30" as="geometry" />
        </mxCell>
        <mxCell id="WAWtEV3Eb6KC3IeLiP2w-34" value="&lt;font style=&quot;font-size: 16px;&quot;&gt;Имеют&lt;/font&gt;" style="text;html=1;align=center;verticalAlign=middle;whiteSpace=wrap;rounded=0;" vertex="1" parent="1">
          <mxGeometry x="760" y="480" width="60" height="30" as="geometry" />
        </mxCell>
        <mxCell id="WAWtEV3Eb6KC3IeLiP2w-35" value="" style="endArrow=classic;html=1;rounded=0;exitX=0.5;exitY=1;exitDx=0;exitDy=0;entryX=0.5;entryY=0;entryDx=0;entryDy=0;" edge="1" parent="1" source="WAWtEV3Eb6KC3IeLiP2w-5" target="WAWtEV3Eb6KC3IeLiP2w-2">
          <mxGeometry width="50" height="50" relative="1" as="geometry">
            <mxPoint x="600" y="110" as="sourcePoint" />
            <mxPoint x="650" y="60" as="targetPoint" />
          </mxGeometry>
        </mxCell>
        <mxCell id="WAWtEV3Eb6KC3IeLiP2w-37" value="&lt;font style=&quot;font-size: 16px;&quot;&gt;Управляет&lt;/font&gt;" style="text;html=1;align=center;verticalAlign=middle;whiteSpace=wrap;rounded=0;" vertex="1" parent="1">
          <mxGeometry x="600" y="215" width="60" height="30" as="geometry" />
        </mxCell>
        <mxCell id="WAWtEV3Eb6KC3IeLiP2w-39" value="&lt;font style=&quot;font-size: 16px;&quot;&gt;Оборудование для подачи сигнала (звуковое)&lt;/font&gt;" style="rounded=0;whiteSpace=wrap;html=1;" vertex="1" parent="1">
          <mxGeometry x="140" y="330" width="150" height="60" as="geometry" />
        </mxCell>
        <mxCell id="WAWtEV3Eb6KC3IeLiP2w-40" value="&lt;font style=&quot;font-size: 16px;&quot;&gt;Изображения&lt;/font&gt;" style="rounded=0;whiteSpace=wrap;html=1;" vertex="1" parent="1">
          <mxGeometry x="516.84" y="794.5" width="120" height="40" as="geometry" />
        </mxCell>
        <mxCell id="WAWtEV3Eb6KC3IeLiP2w-43" value="&lt;font style=&quot;font-size: 16px;&quot;&gt;part_of&lt;/font&gt;" style="text;html=1;align=center;verticalAlign=middle;whiteSpace=wrap;rounded=0;" vertex="1" parent="1">
          <mxGeometry x="460.00000000000006" y="690" width="60" height="30" as="geometry" />
        </mxCell>
        <mxCell id="WAWtEV3Eb6KC3IeLiP2w-44" value="" style="endArrow=classic;html=1;rounded=0;entryX=0.5;entryY=0;entryDx=0;entryDy=0;exitX=0.5;exitY=1;exitDx=0;exitDy=0;" edge="1" parent="1" source="WAWtEV3Eb6KC3IeLiP2w-39" target="WAWtEV3Eb6KC3IeLiP2w-1">
          <mxGeometry width="50" height="50" relative="1" as="geometry">
            <mxPoint x="560" y="690" as="sourcePoint" />
            <mxPoint x="610" y="640" as="targetPoint" />
          </mxGeometry>
        </mxCell>
        <mxCell id="WAWtEV3Eb6KC3IeLiP2w-46" value="" style="endArrow=classic;html=1;rounded=0;entryX=1;entryY=0.5;entryDx=0;entryDy=0;exitX=0;exitY=0.5;exitDx=0;exitDy=0;" edge="1" parent="1" source="WAWtEV3Eb6KC3IeLiP2w-12" target="WAWtEV3Eb6KC3IeLiP2w-40">
          <mxGeometry width="50" height="50" relative="1" as="geometry">
            <mxPoint x="626.84" y="710" as="sourcePoint" />
            <mxPoint x="676.84" y="660" as="targetPoint" />
          </mxGeometry>
        </mxCell>
        <mxCell id="WAWtEV3Eb6KC3IeLiP2w-47" value="&lt;font style=&quot;font-size: 16px;&quot;&gt;Отправляют&lt;/font&gt;" style="text;html=1;align=center;verticalAlign=middle;whiteSpace=wrap;rounded=0;" vertex="1" parent="1">
          <mxGeometry x="400" y="790" width="60" height="30" as="geometry" />
        </mxCell>
        <mxCell id="WAWtEV3Eb6KC3IeLiP2w-48" value="&lt;font style=&quot;font-size: 16px;&quot;&gt;Запрашивает&lt;/font&gt;" style="text;html=1;align=center;verticalAlign=middle;whiteSpace=wrap;rounded=0;" vertex="1" parent="1">
          <mxGeometry x="670" y="790" width="60" height="30" as="geometry" />
        </mxCell>
        <mxCell id="WAWtEV3Eb6KC3IeLiP2w-51" value="" style="endArrow=classic;html=1;rounded=0;entryX=0.75;entryY=1;entryDx=0;entryDy=0;exitX=0.75;exitY=0;exitDx=0;exitDy=0;" edge="1" parent="1" source="WAWtEV3Eb6KC3IeLiP2w-12" target="WAWtEV3Eb6KC3IeLiP2w-6">
          <mxGeometry width="50" height="50" relative="1" as="geometry">
            <mxPoint x="786.84" y="710" as="sourcePoint" />
            <mxPoint x="726.84" y="540.0000000000002" as="targetPoint" />
          </mxGeometry>
        </mxCell>
        <mxCell id="WAWtEV3Eb6KC3IeLiP2w-52" value="&lt;font style=&quot;font-size: 16px;&quot;&gt;Распознаёт&lt;/font&gt;" style="text;html=1;align=center;verticalAlign=middle;whiteSpace=wrap;rounded=0;" vertex="1" parent="1">
          <mxGeometry x="740" y="610" width="60" height="30" as="geometry" />
        </mxCell>
        <mxCell id="WAWtEV3Eb6KC3IeLiP2w-53" value="" style="endArrow=classic;html=1;rounded=0;entryX=0.5;entryY=1;entryDx=0;entryDy=0;exitX=0.908;exitY=0.081;exitDx=0;exitDy=0;exitPerimeter=0;" edge="1" parent="1" source="WAWtEV3Eb6KC3IeLiP2w-12" target="WAWtEV3Eb6KC3IeLiP2w-7">
          <mxGeometry width="50" height="50" relative="1" as="geometry">
            <mxPoint x="720" y="690" as="sourcePoint" />
            <mxPoint x="770" y="640" as="targetPoint" />
          </mxGeometry>
        </mxCell>
        <mxCell id="WAWtEV3Eb6KC3IeLiP2w-54" value="&lt;font style=&quot;font-size: 16px;&quot;&gt;Распознаёт&lt;/font&gt;" style="text;html=1;align=center;verticalAlign=middle;whiteSpace=wrap;rounded=0;" vertex="1" parent="1">
          <mxGeometry x="860" y="635" width="60" height="30" as="geometry" />
        </mxCell>
        <mxCell id="WAWtEV3Eb6KC3IeLiP2w-55" value="" style="endArrow=classic;html=1;rounded=0;entryX=0.5;entryY=0;entryDx=0;entryDy=0;exitX=0.5;exitY=1;exitDx=0;exitDy=0;" edge="1" parent="1" source="WAWtEV3Eb6KC3IeLiP2w-2" target="WAWtEV3Eb6KC3IeLiP2w-4">
          <mxGeometry width="50" height="50" relative="1" as="geometry">
            <mxPoint x="360" y="470" as="sourcePoint" />
            <mxPoint x="410" y="420" as="targetPoint" />
          </mxGeometry>
        </mxCell>
        <mxCell id="WAWtEV3Eb6KC3IeLiP2w-56" value="&lt;font style=&quot;font-size: 16px;&quot;&gt;Поднимает/опускает&lt;/font&gt;" style="text;html=1;align=center;verticalAlign=middle;whiteSpace=wrap;rounded=0;" vertex="1" parent="1">
          <mxGeometry x="550" y="320" width="170" height="30" as="geometry" />
        </mxCell>
        <mxCell id="WAWtEV3Eb6KC3IeLiP2w-58" value="&lt;font style=&quot;font-size: 16px;&quot;&gt;Опасная зона&lt;/font&gt;" style="rounded=0;whiteSpace=wrap;html=1;" vertex="1" parent="1">
          <mxGeometry x="322.5" y="360" width="120" height="40" as="geometry" />
        </mxCell>
        <mxCell id="WAWtEV3Eb6KC3IeLiP2w-59" value="" style="endArrow=classic;html=1;rounded=0;exitX=0.5;exitY=0;exitDx=0;exitDy=0;entryX=0.5;entryY=1;entryDx=0;entryDy=0;" edge="1" parent="1" source="WAWtEV3Eb6KC3IeLiP2w-12" target="WAWtEV3Eb6KC3IeLiP2w-58">
          <mxGeometry width="50" height="50" relative="1" as="geometry">
            <mxPoint x="616.84" y="640" as="sourcePoint" />
            <mxPoint x="666.84" y="590" as="targetPoint" />
          </mxGeometry>
        </mxCell>
        <mxCell id="WAWtEV3Eb6KC3IeLiP2w-60" value="&lt;font style=&quot;font-size: 16px;&quot;&gt;Определяет&lt;/font&gt;" style="text;html=1;align=center;verticalAlign=middle;whiteSpace=wrap;rounded=0;" vertex="1" parent="1">
          <mxGeometry x="590" y="585" width="60" height="30" as="geometry" />
        </mxCell>
        <mxCell id="WAWtEV3Eb6KC3IeLiP2w-63" value="" style="endArrow=classic;html=1;rounded=0;exitX=0.25;exitY=0;exitDx=0;exitDy=0;entryX=0.593;entryY=1.038;entryDx=0;entryDy=0;entryPerimeter=0;" edge="1" parent="1" source="WAWtEV3Eb6KC3IeLiP2w-12" target="WAWtEV3Eb6KC3IeLiP2w-39">
          <mxGeometry width="50" height="50" relative="1" as="geometry">
            <mxPoint x="550" y="490" as="sourcePoint" />
            <mxPoint x="320" y="480" as="targetPoint" />
          </mxGeometry>
        </mxCell>
        <mxCell id="WAWtEV3Eb6KC3IeLiP2w-64" value="&lt;font style=&quot;font-size: 16px;&quot;&gt;Отправляет сигнал о прекращении работы козлового крана&lt;/font&gt;" style="text;html=1;align=center;verticalAlign=middle;whiteSpace=wrap;rounded=0;" vertex="1" parent="1">
          <mxGeometry x="340" y="535" width="170" height="50" as="geometry" />
        </mxCell>
        <mxCell id="WAWtEV3Eb6KC3IeLiP2w-68" value="" style="endArrow=classic;html=1;rounded=0;entryX=0;entryY=0.5;entryDx=0;entryDy=0;exitX=1;exitY=0.5;exitDx=0;exitDy=0;" edge="1" parent="1" source="WAWtEV3Eb6KC3IeLiP2w-27" target="WAWtEV3Eb6KC3IeLiP2w-40">
          <mxGeometry width="50" height="50" relative="1" as="geometry">
            <mxPoint x="405" y="834.5" as="sourcePoint" />
            <mxPoint x="455" y="784.5" as="targetPoint" />
          </mxGeometry>
        </mxCell>
        <mxCell id="WAWtEV3Eb6KC3IeLiP2w-72" value="&lt;font style=&quot;font-size: 16px;&quot;&gt;Звуковое оповещение о прекращении работы козлового крана&lt;/font&gt;" style="rounded=0;whiteSpace=wrap;html=1;" vertex="1" parent="1">
          <mxGeometry x="260" y="185" width="185" height="60" as="geometry" />
        </mxCell>
        <mxCell id="WAWtEV3Eb6KC3IeLiP2w-73" value="" style="endArrow=classic;html=1;rounded=0;entryX=0.5;entryY=1;entryDx=0;entryDy=0;exitX=1;exitY=0.25;exitDx=0;exitDy=0;" edge="1" parent="1" source="WAWtEV3Eb6KC3IeLiP2w-39" target="WAWtEV3Eb6KC3IeLiP2w-72">
          <mxGeometry width="50" height="50" relative="1" as="geometry">
            <mxPoint x="680" y="490" as="sourcePoint" />
            <mxPoint x="730" y="440" as="targetPoint" />
          </mxGeometry>
        </mxCell>
        <mxCell id="WAWtEV3Eb6KC3IeLiP2w-74" value="&lt;font style=&quot;font-size: 16px;&quot;&gt;Подаёт&lt;/font&gt;" style="text;html=1;align=center;verticalAlign=middle;whiteSpace=wrap;rounded=0;" vertex="1" parent="1">
          <mxGeometry x="290" y="280" width="60" height="30" as="geometry" />
        </mxCell>
        <mxCell id="WAWtEV3Eb6KC3IeLiP2w-75" value="" style="endArrow=classic;html=1;rounded=0;entryX=1;entryY=1;entryDx=0;entryDy=0;exitX=0;exitY=0.5;exitDx=0;exitDy=0;" edge="1" parent="1" source="WAWtEV3Eb6KC3IeLiP2w-6" target="WAWtEV3Eb6KC3IeLiP2w-58">
          <mxGeometry width="50" height="50" relative="1" as="geometry">
            <mxPoint x="680" y="490" as="sourcePoint" />
            <mxPoint x="730" y="440" as="targetPoint" />
          </mxGeometry>
        </mxCell>
        <mxCell id="WAWtEV3Eb6KC3IeLiP2w-76" value="&lt;font style=&quot;font-size: 16px;&quot;&gt;Присутствуют/отсутствуют в&lt;/font&gt;" style="text;html=1;align=center;verticalAlign=middle;whiteSpace=wrap;rounded=0;" vertex="1" parent="1">
          <mxGeometry x="490" y="450" width="110" height="40" as="geometry" />
        </mxCell>
        <mxCell id="WAWtEV3Eb6KC3IeLiP2w-77" value="" style="endArrow=none;html=1;rounded=0;exitX=0;exitY=0.5;exitDx=0;exitDy=0;" edge="1" parent="1" source="WAWtEV3Eb6KC3IeLiP2w-27">
          <mxGeometry width="50" height="50" relative="1" as="geometry">
            <mxPoint x="560" y="490" as="sourcePoint" />
            <mxPoint x="100" y="815" as="targetPoint" />
          </mxGeometry>
        </mxCell>
        <mxCell id="WAWtEV3Eb6KC3IeLiP2w-79" value="" style="endArrow=none;html=1;rounded=0;" edge="1" parent="1">
          <mxGeometry width="50" height="50" relative="1" as="geometry">
            <mxPoint x="100" y="120" as="sourcePoint" />
            <mxPoint x="480" y="120" as="targetPoint" />
          </mxGeometry>
        </mxCell>
        <mxCell id="WAWtEV3Eb6KC3IeLiP2w-80" value="" style="endArrow=classic;html=1;rounded=0;entryX=0.25;entryY=0;entryDx=0;entryDy=0;" edge="1" parent="1" target="WAWtEV3Eb6KC3IeLiP2w-2">
          <mxGeometry width="50" height="50" relative="1" as="geometry">
            <mxPoint x="480" y="120" as="sourcePoint" />
            <mxPoint x="610" y="440" as="targetPoint" />
          </mxGeometry>
        </mxCell>
        <mxCell id="WAWtEV3Eb6KC3IeLiP2w-85" value="" style="endArrow=none;html=1;rounded=0;" edge="1" parent="1">
          <mxGeometry width="50" height="50" relative="1" as="geometry">
            <mxPoint x="100" y="820" as="sourcePoint" />
            <mxPoint x="100" y="120" as="targetPoint" />
          </mxGeometry>
        </mxCell>
        <mxCell id="WAWtEV3Eb6KC3IeLiP2w-86" value="&lt;font style=&quot;font-size: 16px;&quot;&gt;Располагаются&lt;/font&gt;" style="text;html=1;align=center;verticalAlign=middle;whiteSpace=wrap;rounded=0;" vertex="1" parent="1">
          <mxGeometry x="70" y="470" width="60" height="30" as="geometry" />
        </mxCell>
        <mxCell id="WAWtEV3Eb6KC3IeLiP2w-87" value="" style="rounded=0;whiteSpace=wrap;html=1;" vertex="1" parent="1">
          <mxGeometry x="1400" y="20" width="1430" height="1070" as="geometry" />
        </mxCell>
        <mxCell id="WAWtEV3Eb6KC3IeLiP2w-88" value="&lt;font style=&quot;font-size: 16px;&quot;&gt;Система безопасности&lt;/font&gt;" style="rounded=0;whiteSpace=wrap;html=1;" vertex="1" parent="1">
          <mxGeometry x="1630" y="727.75" width="120" height="40" as="geometry" />
        </mxCell>
        <mxCell id="WAWtEV3Eb6KC3IeLiP2w-89" value="&lt;font style=&quot;font-size: 16px;&quot;&gt;Козловой кран&lt;/font&gt;" style="rounded=0;whiteSpace=wrap;html=1;" vertex="1" parent="1">
          <mxGeometry x="2046.84" y="390" width="120" height="40" as="geometry" />
        </mxCell>
        <mxCell id="WAWtEV3Eb6KC3IeLiP2w-90" value="&lt;font style=&quot;font-size: 16px;&quot;&gt;Вагон&lt;/font&gt;" style="rounded=0;whiteSpace=wrap;html=1;" vertex="1" parent="1">
          <mxGeometry x="2046.84" y="487.75" width="120" height="40" as="geometry" />
        </mxCell>
        <mxCell id="WAWtEV3Eb6KC3IeLiP2w-91" value="&lt;font style=&quot;font-size: 16px;&quot;&gt;Машинист&lt;/font&gt;" style="rounded=0;whiteSpace=wrap;html=1;" vertex="1" parent="1">
          <mxGeometry x="2046.84" y="285" width="120" height="40" as="geometry" />
        </mxCell>
        <mxCell id="WAWtEV3Eb6KC3IeLiP2w-92" value="&lt;font style=&quot;font-size: 16px;&quot;&gt;Рабочие&lt;/font&gt;" style="rounded=0;whiteSpace=wrap;html=1;" vertex="1" parent="1">
          <mxGeometry x="2046.8400000000001" y="597.75" width="120" height="40" as="geometry" />
        </mxCell>
        <mxCell id="WAWtEV3Eb6KC3IeLiP2w-93" value="&lt;font style=&quot;font-size: 16px;&quot;&gt;Средства индивидуальной защиты&lt;/font&gt;" style="rounded=0;whiteSpace=wrap;html=1;" vertex="1" parent="1">
          <mxGeometry x="2250" y="527.75" width="130" height="60" as="geometry" />
        </mxCell>
        <mxCell id="WAWtEV3Eb6KC3IeLiP2w-94" value="&lt;font style=&quot;font-size: 16px;&quot;&gt;Жилет&lt;/font&gt;" style="rounded=0;whiteSpace=wrap;html=1;" vertex="1" parent="1">
          <mxGeometry x="2490" y="457.75" width="120" height="40" as="geometry" />
        </mxCell>
        <mxCell id="WAWtEV3Eb6KC3IeLiP2w-95" value="&lt;font style=&quot;font-size: 16px;&quot;&gt;Каска&lt;/font&gt;" style="rounded=0;whiteSpace=wrap;html=1;" vertex="1" parent="1">
          <mxGeometry x="2490" y="537.75" width="120" height="40" as="geometry" />
        </mxCell>
        <mxCell id="WAWtEV3Eb6KC3IeLiP2w-96" value="&lt;font style=&quot;font-size: 16px;&quot;&gt;Перчатки&lt;/font&gt;" style="rounded=0;whiteSpace=wrap;html=1;" vertex="1" parent="1">
          <mxGeometry x="2490" y="617.75" width="120" height="40" as="geometry" />
        </mxCell>
        <mxCell id="WAWtEV3Eb6KC3IeLiP2w-97" value="&lt;font style=&quot;font-size: 16px;&quot;&gt;Центр обработки данных&lt;/font&gt;" style="rounded=0;whiteSpace=wrap;html=1;" vertex="1" parent="1">
          <mxGeometry x="2170" y="886.75" width="140" height="45.5" as="geometry" />
        </mxCell>
        <mxCell id="WAWtEV3Eb6KC3IeLiP2w-98" value="&lt;font style=&quot;font-size: 20px;&quot;&gt;Онтология описания системы контроля соблюдения охраны труда и техники безопасности при работе козлового крана&lt;/font&gt;" style="text;html=1;align=center;verticalAlign=middle;whiteSpace=wrap;rounded=0;" vertex="1" parent="1">
          <mxGeometry x="1480" y="190" width="1175" height="60" as="geometry" />
        </mxCell>
        <mxCell id="WAWtEV3Eb6KC3IeLiP2w-99" value="" style="endArrow=classic;html=1;rounded=0;exitX=0;exitY=0.5;exitDx=0;exitDy=0;entryX=1;entryY=0.5;entryDx=0;entryDy=0;" edge="1" parent="1" source="WAWtEV3Eb6KC3IeLiP2w-94" target="WAWtEV3Eb6KC3IeLiP2w-93">
          <mxGeometry width="50" height="50" relative="1" as="geometry">
            <mxPoint x="2190" y="567.75" as="sourcePoint" />
            <mxPoint x="2240" y="517.75" as="targetPoint" />
          </mxGeometry>
        </mxCell>
        <mxCell id="WAWtEV3Eb6KC3IeLiP2w-100" value="&lt;font style=&quot;font-size: 16px;&quot;&gt;part_of&lt;/font&gt;" style="text;html=1;align=center;verticalAlign=middle;whiteSpace=wrap;rounded=0;" vertex="1" parent="1">
          <mxGeometry x="2410" y="477.75" width="60" height="30" as="geometry" />
        </mxCell>
        <mxCell id="WAWtEV3Eb6KC3IeLiP2w-101" value="" style="endArrow=classic;html=1;rounded=0;entryX=1;entryY=0.5;entryDx=0;entryDy=0;exitX=0;exitY=0.5;exitDx=0;exitDy=0;" edge="1" parent="1" source="WAWtEV3Eb6KC3IeLiP2w-95" target="WAWtEV3Eb6KC3IeLiP2w-93">
          <mxGeometry width="50" height="50" relative="1" as="geometry">
            <mxPoint x="2190" y="567.75" as="sourcePoint" />
            <mxPoint x="2240" y="517.75" as="targetPoint" />
          </mxGeometry>
        </mxCell>
        <mxCell id="WAWtEV3Eb6KC3IeLiP2w-102" value="" style="endArrow=classic;html=1;rounded=0;exitX=0;exitY=0.5;exitDx=0;exitDy=0;entryX=1;entryY=0.5;entryDx=0;entryDy=0;" edge="1" parent="1" source="WAWtEV3Eb6KC3IeLiP2w-96" target="WAWtEV3Eb6KC3IeLiP2w-93">
          <mxGeometry width="50" height="50" relative="1" as="geometry">
            <mxPoint x="2190" y="567.75" as="sourcePoint" />
            <mxPoint x="2240" y="517.75" as="targetPoint" />
          </mxGeometry>
        </mxCell>
        <mxCell id="WAWtEV3Eb6KC3IeLiP2w-103" value="&lt;font style=&quot;font-size: 16px;&quot;&gt;part_of&lt;/font&gt;" style="text;html=1;align=center;verticalAlign=middle;whiteSpace=wrap;rounded=0;" vertex="1" parent="1">
          <mxGeometry x="2410" y="527.75" width="60" height="30" as="geometry" />
        </mxCell>
        <mxCell id="WAWtEV3Eb6KC3IeLiP2w-104" value="&lt;font style=&quot;font-size: 16px;&quot;&gt;part_of&lt;/font&gt;" style="text;html=1;align=center;verticalAlign=middle;whiteSpace=wrap;rounded=0;" vertex="1" parent="1">
          <mxGeometry x="2410" y="577.75" width="60" height="30" as="geometry" />
        </mxCell>
        <mxCell id="WAWtEV3Eb6KC3IeLiP2w-105" value="" style="endArrow=classic;html=1;rounded=0;entryX=0.75;entryY=1;entryDx=0;entryDy=0;exitX=0;exitY=0;exitDx=0;exitDy=0;" edge="1" parent="1" source="WAWtEV3Eb6KC3IeLiP2w-97" target="WAWtEV3Eb6KC3IeLiP2w-88">
          <mxGeometry width="50" height="50" relative="1" as="geometry">
            <mxPoint x="1906.8400000000001" y="687.75" as="sourcePoint" />
            <mxPoint x="1636.84" y="647.7500000000002" as="targetPoint" />
          </mxGeometry>
        </mxCell>
        <mxCell id="WAWtEV3Eb6KC3IeLiP2w-106" value="&lt;font style=&quot;font-size: 16px;&quot;&gt;part_of&lt;/font&gt;" style="text;html=1;align=center;verticalAlign=middle;whiteSpace=wrap;rounded=0;" vertex="1" parent="1">
          <mxGeometry x="1660" y="817.75" width="60" height="30" as="geometry" />
        </mxCell>
        <mxCell id="WAWtEV3Eb6KC3IeLiP2w-107" value="&lt;font style=&quot;font-size: 16px;&quot;&gt;Камеры (8 шт.)&lt;/font&gt;" style="rounded=0;whiteSpace=wrap;html=1;" vertex="1" parent="1">
          <mxGeometry x="1650" y="892.25" width="120" height="40" as="geometry" />
        </mxCell>
        <mxCell id="WAWtEV3Eb6KC3IeLiP2w-108" value="" style="endArrow=classic;html=1;rounded=0;exitX=0.5;exitY=0;exitDx=0;exitDy=0;entryX=0.5;entryY=1;entryDx=0;entryDy=0;" edge="1" parent="1" source="WAWtEV3Eb6KC3IeLiP2w-107" target="WAWtEV3Eb6KC3IeLiP2w-88">
          <mxGeometry width="50" height="50" relative="1" as="geometry">
            <mxPoint x="1916.8400000000001" y="687.75" as="sourcePoint" />
            <mxPoint x="1600" y="648.55" as="targetPoint" />
          </mxGeometry>
        </mxCell>
        <mxCell id="WAWtEV3Eb6KC3IeLiP2w-109" value="&lt;font style=&quot;font-size: 16px;&quot;&gt;part_of&lt;/font&gt;" style="text;html=1;align=center;verticalAlign=middle;whiteSpace=wrap;rounded=0;" vertex="1" parent="1">
          <mxGeometry x="1620" y="617.75" width="60" height="30" as="geometry" />
        </mxCell>
        <mxCell id="WAWtEV3Eb6KC3IeLiP2w-110" value="" style="endArrow=classic;html=1;rounded=0;entryX=0;entryY=0.5;entryDx=0;entryDy=0;exitX=1;exitY=0.5;exitDx=0;exitDy=0;" edge="1" parent="1" source="WAWtEV3Eb6KC3IeLiP2w-92" target="WAWtEV3Eb6KC3IeLiP2w-93">
          <mxGeometry width="50" height="50" relative="1" as="geometry">
            <mxPoint x="2020" y="667.75" as="sourcePoint" />
            <mxPoint x="2070" y="617.75" as="targetPoint" />
          </mxGeometry>
        </mxCell>
        <mxCell id="WAWtEV3Eb6KC3IeLiP2w-111" value="" style="endArrow=classic;html=1;rounded=0;exitX=1;exitY=0.5;exitDx=0;exitDy=0;" edge="1" parent="1" source="WAWtEV3Eb6KC3IeLiP2w-91">
          <mxGeometry width="50" height="50" relative="1" as="geometry">
            <mxPoint x="2140" y="637.75" as="sourcePoint" />
            <mxPoint x="2250" y="557.75" as="targetPoint" />
          </mxGeometry>
        </mxCell>
        <mxCell id="WAWtEV3Eb6KC3IeLiP2w-112" value="&lt;font style=&quot;font-size: 16px;&quot;&gt;Имеет&lt;/font&gt;" style="text;html=1;align=center;verticalAlign=middle;whiteSpace=wrap;rounded=0;" vertex="1" parent="1">
          <mxGeometry x="2210" y="387.75" width="60" height="30" as="geometry" />
        </mxCell>
        <mxCell id="WAWtEV3Eb6KC3IeLiP2w-113" value="&lt;font style=&quot;font-size: 16px;&quot;&gt;Имеют&lt;/font&gt;" style="text;html=1;align=center;verticalAlign=middle;whiteSpace=wrap;rounded=0;" vertex="1" parent="1">
          <mxGeometry x="2170" y="577.75" width="60" height="30" as="geometry" />
        </mxCell>
        <mxCell id="WAWtEV3Eb6KC3IeLiP2w-114" value="" style="endArrow=classic;html=1;rounded=0;exitX=0.5;exitY=1;exitDx=0;exitDy=0;entryX=0.5;entryY=0;entryDx=0;entryDy=0;" edge="1" parent="1" source="WAWtEV3Eb6KC3IeLiP2w-91" target="WAWtEV3Eb6KC3IeLiP2w-89">
          <mxGeometry width="50" height="50" relative="1" as="geometry">
            <mxPoint x="2010" y="207.75" as="sourcePoint" />
            <mxPoint x="2060" y="157.75" as="targetPoint" />
          </mxGeometry>
        </mxCell>
        <mxCell id="WAWtEV3Eb6KC3IeLiP2w-115" value="&lt;font style=&quot;font-size: 16px;&quot;&gt;Управляет&lt;/font&gt;" style="text;html=1;align=center;verticalAlign=middle;whiteSpace=wrap;rounded=0;" vertex="1" parent="1">
          <mxGeometry x="2085" y="340" width="60" height="30" as="geometry" />
        </mxCell>
        <mxCell id="WAWtEV3Eb6KC3IeLiP2w-116" value="&lt;font style=&quot;font-size: 16px;&quot;&gt;Оборудование для подачи сигнала (звуковое)&lt;/font&gt;" style="rounded=0;whiteSpace=wrap;html=1;" vertex="1" parent="1">
          <mxGeometry x="1550" y="427.75" width="150" height="60" as="geometry" />
        </mxCell>
        <mxCell id="WAWtEV3Eb6KC3IeLiP2w-117" value="&lt;font style=&quot;font-size: 16px;&quot;&gt;Изображения&lt;/font&gt;" style="rounded=0;whiteSpace=wrap;html=1;" vertex="1" parent="1">
          <mxGeometry x="1926.8400000000001" y="892.25" width="120" height="40" as="geometry" />
        </mxCell>
        <mxCell id="WAWtEV3Eb6KC3IeLiP2w-118" value="&lt;font style=&quot;font-size: 16px;&quot;&gt;part_of&lt;/font&gt;" style="text;html=1;align=center;verticalAlign=middle;whiteSpace=wrap;rounded=0;" vertex="1" parent="1">
          <mxGeometry x="1870" y="787.75" width="60" height="30" as="geometry" />
        </mxCell>
        <mxCell id="WAWtEV3Eb6KC3IeLiP2w-119" value="" style="endArrow=classic;html=1;rounded=0;entryX=0.5;entryY=0;entryDx=0;entryDy=0;exitX=0.5;exitY=1;exitDx=0;exitDy=0;" edge="1" parent="1" source="WAWtEV3Eb6KC3IeLiP2w-116" target="WAWtEV3Eb6KC3IeLiP2w-88">
          <mxGeometry width="50" height="50" relative="1" as="geometry">
            <mxPoint x="1970" y="787.75" as="sourcePoint" />
            <mxPoint x="2020" y="737.75" as="targetPoint" />
          </mxGeometry>
        </mxCell>
        <mxCell id="WAWtEV3Eb6KC3IeLiP2w-120" value="" style="endArrow=classic;html=1;rounded=0;entryX=1;entryY=0.5;entryDx=0;entryDy=0;exitX=0;exitY=0.5;exitDx=0;exitDy=0;" edge="1" parent="1" source="WAWtEV3Eb6KC3IeLiP2w-97" target="WAWtEV3Eb6KC3IeLiP2w-117">
          <mxGeometry width="50" height="50" relative="1" as="geometry">
            <mxPoint x="2036.8400000000001" y="807.75" as="sourcePoint" />
            <mxPoint x="2086.84" y="757.75" as="targetPoint" />
          </mxGeometry>
        </mxCell>
        <mxCell id="WAWtEV3Eb6KC3IeLiP2w-121" value="&lt;font style=&quot;font-size: 16px;&quot;&gt;Отправляют&lt;/font&gt;" style="text;html=1;align=center;verticalAlign=middle;whiteSpace=wrap;rounded=0;" vertex="1" parent="1">
          <mxGeometry x="1810" y="887.75" width="60" height="30" as="geometry" />
        </mxCell>
        <mxCell id="WAWtEV3Eb6KC3IeLiP2w-122" value="&lt;font style=&quot;font-size: 16px;&quot;&gt;Запрашивает&lt;/font&gt;" style="text;html=1;align=center;verticalAlign=middle;whiteSpace=wrap;rounded=0;" vertex="1" parent="1">
          <mxGeometry x="2080" y="887.75" width="60" height="30" as="geometry" />
        </mxCell>
        <mxCell id="WAWtEV3Eb6KC3IeLiP2w-123" value="" style="endArrow=classic;html=1;rounded=0;entryX=0.75;entryY=1;entryDx=0;entryDy=0;exitX=0.75;exitY=0;exitDx=0;exitDy=0;" edge="1" parent="1" source="WAWtEV3Eb6KC3IeLiP2w-97" target="WAWtEV3Eb6KC3IeLiP2w-92">
          <mxGeometry width="50" height="50" relative="1" as="geometry">
            <mxPoint x="2196.84" y="807.75" as="sourcePoint" />
            <mxPoint x="2136.84" y="637.7500000000002" as="targetPoint" />
          </mxGeometry>
        </mxCell>
        <mxCell id="WAWtEV3Eb6KC3IeLiP2w-124" value="&lt;font style=&quot;font-size: 16px;&quot;&gt;Распознаёт&lt;/font&gt;" style="text;html=1;align=center;verticalAlign=middle;whiteSpace=wrap;rounded=0;" vertex="1" parent="1">
          <mxGeometry x="2150" y="707.75" width="60" height="30" as="geometry" />
        </mxCell>
        <mxCell id="WAWtEV3Eb6KC3IeLiP2w-125" value="" style="endArrow=classic;html=1;rounded=0;entryX=0.5;entryY=1;entryDx=0;entryDy=0;exitX=0.908;exitY=0.081;exitDx=0;exitDy=0;exitPerimeter=0;" edge="1" parent="1" source="WAWtEV3Eb6KC3IeLiP2w-97" target="WAWtEV3Eb6KC3IeLiP2w-93">
          <mxGeometry width="50" height="50" relative="1" as="geometry">
            <mxPoint x="2130" y="787.75" as="sourcePoint" />
            <mxPoint x="2180" y="737.75" as="targetPoint" />
          </mxGeometry>
        </mxCell>
        <mxCell id="WAWtEV3Eb6KC3IeLiP2w-126" value="&lt;font style=&quot;font-size: 16px;&quot;&gt;Распознаёт&lt;/font&gt;" style="text;html=1;align=center;verticalAlign=middle;whiteSpace=wrap;rounded=0;" vertex="1" parent="1">
          <mxGeometry x="2270" y="732.75" width="60" height="30" as="geometry" />
        </mxCell>
        <mxCell id="WAWtEV3Eb6KC3IeLiP2w-127" value="" style="endArrow=classic;html=1;rounded=0;entryX=0.5;entryY=0;entryDx=0;entryDy=0;exitX=0.5;exitY=1;exitDx=0;exitDy=0;" edge="1" parent="1" source="WAWtEV3Eb6KC3IeLiP2w-89" target="WAWtEV3Eb6KC3IeLiP2w-90">
          <mxGeometry width="50" height="50" relative="1" as="geometry">
            <mxPoint x="1770" y="567.75" as="sourcePoint" />
            <mxPoint x="1820" y="517.75" as="targetPoint" />
          </mxGeometry>
        </mxCell>
        <mxCell id="WAWtEV3Eb6KC3IeLiP2w-128" value="&lt;font style=&quot;font-size: 16px;&quot;&gt;Поднимает/опускает&lt;/font&gt;" style="text;html=1;align=center;verticalAlign=middle;whiteSpace=wrap;rounded=0;" vertex="1" parent="1">
          <mxGeometry x="2021.84" y="440" width="170" height="30" as="geometry" />
        </mxCell>
        <mxCell id="WAWtEV3Eb6KC3IeLiP2w-129" value="&lt;font style=&quot;font-size: 16px;&quot;&gt;Опасная зона&lt;/font&gt;" style="rounded=0;whiteSpace=wrap;html=1;" vertex="1" parent="1">
          <mxGeometry x="1732.5" y="457.75" width="120" height="40" as="geometry" />
        </mxCell>
        <mxCell id="WAWtEV3Eb6KC3IeLiP2w-130" value="" style="endArrow=classic;html=1;rounded=0;exitX=0.5;exitY=0;exitDx=0;exitDy=0;entryX=0.5;entryY=1;entryDx=0;entryDy=0;" edge="1" parent="1" source="WAWtEV3Eb6KC3IeLiP2w-97" target="WAWtEV3Eb6KC3IeLiP2w-129">
          <mxGeometry width="50" height="50" relative="1" as="geometry">
            <mxPoint x="2026.8400000000001" y="737.75" as="sourcePoint" />
            <mxPoint x="2076.84" y="687.75" as="targetPoint" />
          </mxGeometry>
        </mxCell>
        <mxCell id="WAWtEV3Eb6KC3IeLiP2w-131" value="&lt;font style=&quot;font-size: 16px;&quot;&gt;Определяет&lt;/font&gt;" style="text;html=1;align=center;verticalAlign=middle;whiteSpace=wrap;rounded=0;" vertex="1" parent="1">
          <mxGeometry x="2000" y="682.75" width="60" height="30" as="geometry" />
        </mxCell>
        <mxCell id="WAWtEV3Eb6KC3IeLiP2w-132" value="" style="endArrow=classic;html=1;rounded=0;exitX=0.25;exitY=0;exitDx=0;exitDy=0;entryX=0.593;entryY=1.038;entryDx=0;entryDy=0;entryPerimeter=0;" edge="1" parent="1" source="WAWtEV3Eb6KC3IeLiP2w-97" target="WAWtEV3Eb6KC3IeLiP2w-116">
          <mxGeometry width="50" height="50" relative="1" as="geometry">
            <mxPoint x="1960" y="587.75" as="sourcePoint" />
            <mxPoint x="1730" y="577.75" as="targetPoint" />
          </mxGeometry>
        </mxCell>
        <mxCell id="WAWtEV3Eb6KC3IeLiP2w-133" value="&lt;font style=&quot;font-size: 16px;&quot;&gt;Отправляет сигнал о прекращении работы козлового крана&lt;/font&gt;" style="text;html=1;align=center;verticalAlign=middle;whiteSpace=wrap;rounded=0;" vertex="1" parent="1">
          <mxGeometry x="1750" y="632.75" width="170" height="50" as="geometry" />
        </mxCell>
        <mxCell id="WAWtEV3Eb6KC3IeLiP2w-134" value="" style="endArrow=classic;html=1;rounded=0;entryX=0;entryY=0.5;entryDx=0;entryDy=0;exitX=1;exitY=0.5;exitDx=0;exitDy=0;" edge="1" parent="1" source="WAWtEV3Eb6KC3IeLiP2w-107" target="WAWtEV3Eb6KC3IeLiP2w-117">
          <mxGeometry width="50" height="50" relative="1" as="geometry">
            <mxPoint x="1815" y="932.25" as="sourcePoint" />
            <mxPoint x="1865" y="882.25" as="targetPoint" />
          </mxGeometry>
        </mxCell>
        <mxCell id="WAWtEV3Eb6KC3IeLiP2w-135" value="&lt;font style=&quot;font-size: 16px;&quot;&gt;Звуковое оповещение о прекращении работы козлового крана из за не соблюдения безопасности&lt;/font&gt;" style="rounded=0;whiteSpace=wrap;html=1;" vertex="1" parent="1">
          <mxGeometry x="1675" y="290" width="235" height="82.75" as="geometry" />
        </mxCell>
        <mxCell id="WAWtEV3Eb6KC3IeLiP2w-136" value="" style="endArrow=classic;html=1;rounded=0;entryX=0.5;entryY=1;entryDx=0;entryDy=0;exitX=1;exitY=0.25;exitDx=0;exitDy=0;" edge="1" parent="1" source="WAWtEV3Eb6KC3IeLiP2w-116" target="WAWtEV3Eb6KC3IeLiP2w-135">
          <mxGeometry width="50" height="50" relative="1" as="geometry">
            <mxPoint x="2090" y="587.75" as="sourcePoint" />
            <mxPoint x="2140" y="537.75" as="targetPoint" />
          </mxGeometry>
        </mxCell>
        <mxCell id="WAWtEV3Eb6KC3IeLiP2w-137" value="&lt;font style=&quot;font-size: 16px;&quot;&gt;Подаёт&lt;/font&gt;" style="text;html=1;align=center;verticalAlign=middle;whiteSpace=wrap;rounded=0;" vertex="1" parent="1">
          <mxGeometry x="1690" y="385" width="60" height="30" as="geometry" />
        </mxCell>
        <mxCell id="WAWtEV3Eb6KC3IeLiP2w-138" value="" style="endArrow=classic;html=1;rounded=0;entryX=1;entryY=1;entryDx=0;entryDy=0;exitX=0;exitY=0.5;exitDx=0;exitDy=0;" edge="1" parent="1" source="WAWtEV3Eb6KC3IeLiP2w-92" target="WAWtEV3Eb6KC3IeLiP2w-129">
          <mxGeometry width="50" height="50" relative="1" as="geometry">
            <mxPoint x="2090" y="587.75" as="sourcePoint" />
            <mxPoint x="2140" y="537.75" as="targetPoint" />
          </mxGeometry>
        </mxCell>
        <mxCell id="WAWtEV3Eb6KC3IeLiP2w-139" value="&lt;font style=&quot;font-size: 16px;&quot;&gt;Присутствуют/отсутствуют в&lt;/font&gt;" style="text;html=1;align=center;verticalAlign=middle;whiteSpace=wrap;rounded=0;" vertex="1" parent="1">
          <mxGeometry x="1900" y="547.75" width="110" height="40" as="geometry" />
        </mxCell>
        <mxCell id="WAWtEV3Eb6KC3IeLiP2w-140" value="" style="endArrow=none;html=1;rounded=0;exitX=0;exitY=0.5;exitDx=0;exitDy=0;" edge="1" parent="1" source="WAWtEV3Eb6KC3IeLiP2w-107">
          <mxGeometry width="50" height="50" relative="1" as="geometry">
            <mxPoint x="1970" y="587.75" as="sourcePoint" />
            <mxPoint x="1510" y="912.75" as="targetPoint" />
          </mxGeometry>
        </mxCell>
        <mxCell id="WAWtEV3Eb6KC3IeLiP2w-142" value="" style="endArrow=classic;html=1;rounded=0;entryX=0.25;entryY=0;entryDx=0;entryDy=0;" edge="1" parent="1" target="WAWtEV3Eb6KC3IeLiP2w-89">
          <mxGeometry width="50" height="50" relative="1" as="geometry">
            <mxPoint x="1940" y="260" as="sourcePoint" />
            <mxPoint x="2096.8399999999997" y="381.13" as="targetPoint" />
          </mxGeometry>
        </mxCell>
        <mxCell id="WAWtEV3Eb6KC3IeLiP2w-143" value="" style="endArrow=none;html=1;rounded=0;" edge="1" parent="1">
          <mxGeometry width="50" height="50" relative="1" as="geometry">
            <mxPoint x="1510" y="917.75" as="sourcePoint" />
            <mxPoint x="1510" y="260" as="targetPoint" />
          </mxGeometry>
        </mxCell>
        <mxCell id="WAWtEV3Eb6KC3IeLiP2w-144" value="&lt;font style=&quot;font-size: 16px;&quot;&gt;Располагаются&lt;/font&gt;" style="text;html=1;align=center;verticalAlign=middle;whiteSpace=wrap;rounded=0;" vertex="1" parent="1">
          <mxGeometry x="1480" y="567.75" width="60" height="30" as="geometry" />
        </mxCell>
        <mxCell id="WAWtEV3Eb6KC3IeLiP2w-148" value="" style="endArrow=none;html=1;rounded=0;entryX=0.378;entryY=0.224;entryDx=0;entryDy=0;entryPerimeter=0;" edge="1" parent="1" target="WAWtEV3Eb6KC3IeLiP2w-87">
          <mxGeometry width="50" height="50" relative="1" as="geometry">
            <mxPoint x="1510" y="260" as="sourcePoint" />
            <mxPoint x="1890" y="217.75" as="targetPoint" />
          </mxGeometry>
        </mxCell>
      </root>
    </mxGraphModel>
  </diagram>
</mxfile>
